<svg width="255" height="32" viewBox="0 0 255 32" fill="none" xmlns="http://www.w3.org/2000/svg">
<path d="M213.304 16.2403C211.481 15.0383 209.473 14.1837 207.573 13.1152C206.34 12.4208 205.027 11.8063 203.957 10.9248C202.135 9.42904 202.51 6.49092 204.413 5.20872C207.144 3.39242 211.669 4.40725 212.151 8.12025C212.151 8.20024 212.232 8.25383 212.312 8.25383H216.437C216.544 8.25383 216.625 8.17364 216.598 8.06686C216.383 5.50247 215.392 3.36562 213.572 2.00334C211.83 0.694489 209.849 0 207.732 0C196.833 0 195.841 11.5125 201.706 15.1453C202.376 15.5727 208.134 18.4574 210.17 19.7128C212.205 20.9682 212.848 23.2654 211.964 25.0817C211.16 26.7378 209.072 27.8865 206.983 27.7529C204.705 27.6193 202.939 26.3907 202.322 24.4674C202.215 24.1203 202.162 23.4524 202.162 23.1586C202.162 23.0784 202.081 22.9982 202.001 22.9982H197.53C197.449 22.9982 197.369 23.0784 197.369 23.1586C197.369 26.3907 198.173 28.1802 200.368 29.8098C202.43 31.3589 204.679 32 207.01 32C213.116 32 216.276 28.5541 216.917 24.9749C217.48 21.4757 216.437 18.3238 213.304 16.2403Z" fill="white"/>
<path d="M19.121 0.588379H17.1394H14.9701C14.8897 0.588379 14.8362 0.641791 14.8094 0.695222L11.1407 12.7687C11.0871 12.929 10.8729 12.929 10.8193 12.7687L7.1504 0.695222C7.1236 0.615075 7.07001 0.588379 6.98961 0.588379H4.8206H2.83876H0.160788C0.080393 0.588379 0 0.668507 0 0.748634V31.5734C0 31.6534 0.080393 31.7336 0.160788 31.7336H4.63301C4.71341 31.7336 4.7938 31.6534 4.7938 31.5734V8.1476C4.7938 7.96063 5.06158 7.93404 5.11517 8.09421L8.81066 20.2478L9.07843 21.1025C9.10523 21.1827 9.15883 21.2095 9.23922 21.2095H12.6671C12.7473 21.2095 12.8009 21.1559 12.8277 21.1025L13.0955 20.2478L16.7912 8.09421C16.8448 7.90724 17.1126 7.96063 17.1126 8.1476V31.5734C17.1126 31.6534 17.193 31.7336 17.2731 31.7336H21.7456C21.8258 31.7336 21.9062 31.6534 21.9062 31.5734V0.748634C21.9062 0.668507 21.8258 0.588379 21.7456 0.588379H19.121Z" fill="white"/>
<path d="M144.826 0.588379C144.745 0.588379 144.692 0.641791 144.665 0.695222L140.998 12.7687C140.944 12.929 140.73 12.929 140.676 12.7687L137.007 0.695222C136.98 0.615075 136.926 0.588379 136.846 0.588379H130.043C129.963 0.588379 129.882 0.668507 129.882 0.748634V31.5734C129.882 31.6534 129.963 31.7336 130.043 31.7336H134.516C134.597 31.7336 134.677 31.6534 134.677 31.5734V8.1476C134.677 7.96063 134.945 7.93404 134.999 8.09421L138.693 20.2478L138.961 21.1025C138.988 21.1827 139.041 21.2095 139.122 21.2095H142.55C142.63 21.2095 142.684 21.1559 142.711 21.1025L142.979 20.2478L146.675 8.09421C146.728 7.90724 146.996 7.96063 146.996 8.1476V31.5734C146.996 31.6534 147.077 31.7336 147.157 31.7336H151.628C151.709 31.7336 151.789 31.6534 151.789 31.5734V0.748634C151.789 0.668507 151.709 0.588379 151.628 0.588379H144.826Z" fill="white"/>
<path d="M87.1419 0.588379H78.8132H74.341H66.0125C65.9321 0.588379 65.8517 0.668507 65.8517 0.748634V4.59497C65.8517 4.67516 65.9321 4.75535 66.0125 4.75535H74.1804V31.5734C74.1804 31.6534 74.2606 31.7336 74.341 31.7336H78.8132C78.8936 31.7336 78.974 31.6534 78.974 31.5734V4.75535H87.1419C87.2223 4.75535 87.3025 4.67516 87.3025 4.59497V0.748634C87.3025 0.668507 87.2491 0.588379 87.1419 0.588379Z" fill="white"/>
<path d="M113.521 31.732H117.59C117.698 31.732 117.778 31.6252 117.751 31.5184L109.343 0.586822C109.316 0.506695 109.262 0.47998 109.182 0.47998H107.629H104.898H103.344C103.264 0.47998 103.21 0.533411 103.183 0.586822L94.7745 31.5184C94.7477 31.6252 94.8281 31.732 94.9353 31.732H99.0058C99.0862 31.732 99.1398 31.6786 99.1666 31.6252L101.604 22.6235C101.63 22.5435 101.684 22.5167 101.764 22.5167H110.763C110.843 22.5167 110.897 22.5701 110.924 22.6235L113.36 31.6252C113.387 31.6786 113.468 31.732 113.521 31.732ZM102.835 18.1094L106.103 6.06254C106.156 5.90237 106.37 5.90237 106.424 6.06254L109.691 18.1094C109.718 18.2162 109.637 18.323 109.53 18.323H102.996C102.889 18.323 102.809 18.2162 102.835 18.1094Z" fill="white"/>
<path d="M182.935 31.732H187.004C187.111 31.732 187.192 31.6252 187.165 31.5184L178.756 0.586822C178.73 0.506695 178.676 0.47998 178.596 0.47998H177.043H174.312H172.758C172.677 0.47998 172.624 0.533411 172.597 0.586822L164.189 31.5184C164.162 31.6252 164.242 31.732 164.349 31.732H168.421C168.501 31.732 168.555 31.6786 168.581 31.6252L171.018 22.6235C171.045 22.5435 171.098 22.5167 171.179 22.5167H180.177C180.257 22.5167 180.311 22.5701 180.338 22.6235L182.774 31.6252C182.801 31.6786 182.855 31.732 182.935 31.732ZM172.249 18.1094L175.516 6.06254C175.57 5.90237 175.784 5.90237 175.838 6.06254L179.105 18.1094C179.132 18.2162 179.051 18.323 178.944 18.323H172.409C172.302 18.323 172.222 18.2162 172.249 18.1094Z" fill="white"/>
<path d="M40.063 27.1647V17.602C40.063 17.522 40.1434 17.4418 40.2238 17.4418H52.1408C52.2212 17.4418 52.3016 17.3616 52.3016 17.2815V13.4351C52.3016 13.3551 52.2212 13.2749 52.1408 13.2749H40.2238C40.1434 13.2749 40.063 13.1947 40.063 13.1145V4.94106C40.063 4.86087 40.1434 4.78068 40.2238 4.78068H53.7744C53.8548 4.78068 53.9352 4.70049 53.9352 4.62051V0.774044C53.9352 0.693917 53.8548 0.61377 53.7744 0.61377H40.063H35.4302C35.3498 0.61377 35.2694 0.693917 35.2694 0.774044V4.78068V13.3015V17.4686V27.3516V31.572C35.2694 31.6521 35.3498 31.7323 35.4302 31.7323H40.063H54.3368C54.4172 31.7323 54.4976 31.6521 54.4976 31.572V27.512C54.4976 27.4318 54.4172 27.3516 54.3368 27.3516H40.197C40.1166 27.325 40.063 27.2714 40.063 27.1647Z" fill="white"/>
<path d="M254.169 31.4652L238.69 15.5185C238.636 15.4652 238.636 15.3584 238.69 15.305L252.617 0.880888C252.724 0.774045 252.643 0.61377 252.509 0.61377H246.805C246.752 0.61377 246.725 0.640485 246.698 0.667201L234.888 12.901C234.781 13.0078 234.62 12.9276 234.62 12.794V0.774044C234.62 0.693917 234.54 0.61377 234.46 0.61377H229.986C229.906 0.61377 229.826 0.693917 229.826 0.774044V31.5988C229.826 31.6789 229.906 31.7591 229.986 31.7591H234.46C234.54 31.7591 234.62 31.6789 234.62 31.5988V18.0295C234.62 17.896 234.808 17.8158 234.888 17.9226L248.277 31.7055C248.304 31.7323 248.358 31.7591 248.384 31.7591H254.088C254.196 31.7323 254.276 31.5454 254.169 31.4652Z" fill="white"/>
</svg>
