<svg width="250" height="39" viewBox="0 0 250 39" fill="none" xmlns="http://www.w3.org/2000/svg">
<path d="M2.20083 19.0079L2.33025 18.8044L10.1344 6.59574C10.2485 6.417 10.5166 6.43548 10.6029 6.62964C11.9067 9.55158 13.0317 13.1855 12.5047 15.4479C12.2797 16.3787 11.6632 17.6393 10.9697 18.8044C10.8804 18.974 10.7817 19.1404 10.6769 19.3007C10.6276 19.3747 10.5444 19.4178 10.455 19.4178H2.42889C2.21313 19.4178 2.08677 19.1836 2.20083 19.0079Z" fill="white"/>
<path d="M36.9866 21.2766V23.2091C36.9866 23.3201 36.9188 23.4187 36.8202 23.4619C36.2161 23.7208 34.1479 24.6701 33.288 25.866C31.0934 28.9205 29.4167 33.288 25.6687 33.288H10.0326C4.49082 33.288 0 28.7818 0 23.2214V23.0427C0 22.8947 0.12018 22.7746 0.26814 22.7746H8.9847C9.15726 22.7746 9.28362 22.9348 9.26826 23.1043C9.20658 23.6714 9.3114 24.2509 9.57954 24.778C10.0973 25.829 11.17 26.4856 12.3289 26.4856H16.644V23.1167H12.3782C12.1594 23.1167 12.0299 22.8639 12.1563 22.6852C12.2025 22.6142 12.2549 22.5403 12.3104 22.4571C12.7142 21.8838 13.2905 20.993 13.8638 19.979C14.2553 19.2947 14.6344 18.5642 14.9395 17.8307C15.0012 17.6981 15.0505 17.5625 15.0998 17.4299C15.183 17.1957 15.2693 16.9769 15.331 16.7581C15.3926 16.5731 15.4419 16.3789 15.4912 16.1971C15.6361 15.5744 15.6977 14.9149 15.6977 14.2306C15.6977 13.9625 15.6854 13.682 15.6608 13.4138C15.6484 13.121 15.6115 12.8282 15.5744 12.5354C15.5498 12.2765 15.5036 12.0206 15.4543 11.7525C15.3926 11.3611 15.3063 10.9727 15.2077 10.5812L15.1738 10.4333C15.0998 10.1651 15.0382 9.90936 14.9519 9.64122C14.7083 8.79972 14.4279 7.97988 14.132 7.21242C14.0241 6.90726 13.9008 6.61446 13.7775 6.32166C13.5957 5.8809 13.4107 5.48022 13.2412 5.10108C13.1549 4.92846 13.081 4.77126 13.007 4.611C12.9238 4.42914 12.8375 4.24728 12.7511 4.07472C12.6895 3.94218 12.6186 3.81888 12.5693 3.69558L12.0422 2.7216C11.9683 2.58906 12.0916 2.43186 12.2364 2.47194L15.5344 3.36576H15.5437C15.5498 3.36576 15.5529 3.36888 15.556 3.36888L15.9905 3.48906L16.4683 3.62472L16.644 3.67398V1.71372C16.644 0.76746 17.4022 0 18.3392 0C18.8077 0 19.2331 0.1911 19.5382 0.50238C19.8433 0.81372 20.0344 1.23906 20.0344 1.71372V4.62336L20.3858 4.72194C20.4136 4.73124 20.4413 4.74354 20.4659 4.76202C20.5523 4.82676 20.6755 4.92228 20.8327 5.03946C20.956 5.13804 21.0886 5.25828 21.2488 5.38158C21.5663 5.63736 21.9454 5.96718 22.3615 6.34632C22.4725 6.44184 22.5803 6.54048 22.679 6.63912C23.2153 7.13844 23.8163 7.72404 24.3896 8.37132C24.5499 8.55318 24.7071 8.7381 24.8674 8.93226C25.0276 9.12954 25.1972 9.3237 25.3451 9.51792C25.5393 9.77682 25.7489 10.045 25.9307 10.3255C26.017 10.458 26.1157 10.5936 26.1989 10.7261C26.4331 11.0806 26.6396 11.4474 26.8369 11.8142C26.9201 11.9837 27.0064 12.1686 27.0804 12.3505C27.2992 12.8405 27.4718 13.3399 27.5828 13.8392C27.6167 13.9471 27.6413 14.0642 27.6537 14.169V14.1937C27.6907 14.3416 27.703 14.4988 27.7153 14.659C27.7646 15.1707 27.74 15.6823 27.629 16.1971C27.5828 16.4159 27.5212 16.6224 27.4472 16.8413C27.3732 17.0509 27.2992 17.2697 27.2037 17.4762C27.0188 17.9046 26.7999 18.3331 26.541 18.7337C26.4578 18.8817 26.3591 19.0389 26.2605 19.1869C26.1526 19.344 26.0417 19.492 25.943 19.6369C25.8074 19.8218 25.6626 20.0159 25.5146 20.1886C25.3821 20.3704 25.2465 20.5523 25.0985 20.7125C24.892 20.956 24.6947 21.1872 24.4882 21.4091C24.365 21.554 24.2324 21.7019 24.0968 21.8345C23.9643 21.9824 23.8286 22.1149 23.7053 22.2382C23.4989 22.4447 23.3263 22.605 23.1814 22.7375L22.8424 23.0489C22.793 23.092 22.7283 23.1167 22.6605 23.1167H20.0344V26.4856H23.3386C24.0783 26.4856 24.7811 26.2235 25.3482 25.7427C25.5424 25.5732 26.39 24.8396 27.3917 23.7331C27.4256 23.6961 27.4688 23.6684 27.5181 23.6561L36.6445 21.0177C36.8141 20.9684 36.9866 21.0978 36.9866 21.2766Z" fill="white"/>
<path d="M76.6339 32.3979C73.9219 32.3979 71.4289 31.7901 69.1555 30.5746C66.9091 29.3591 65.1145 27.668 63.7723 25.5013C62.4577 23.3081 61.8 20.8507 61.8 18.1291C61.8 15.4074 62.4577 12.9632 63.7723 10.7965C65.1145 8.62976 66.9091 6.9386 69.1555 5.72312C71.4289 4.50764 73.9219 3.8999 76.6339 3.8999C79.3459 3.8999 81.8251 4.50764 84.0715 5.72312C86.3455 6.9386 88.1257 8.62976 89.4133 10.7965C90.7285 12.9632 91.3855 15.4074 91.3855 18.1291C91.3855 20.8507 90.7285 23.3081 89.4133 25.5013C88.0987 27.668 86.3179 29.3591 84.0715 30.5746C81.8251 31.7901 79.3459 32.3979 76.6339 32.3979ZM76.6339 26.2147C78.9349 26.2147 80.7702 25.4748 82.14 23.9951C83.5374 22.5154 84.2359 20.56 84.2359 18.1291C84.2359 15.6717 83.5374 13.7163 82.14 12.263C80.7702 10.7833 78.9349 10.0434 76.6339 10.0434C74.3053 10.0434 72.4428 10.7701 71.0454 12.2233C69.6756 13.6767 68.991 15.6452 68.991 18.1291C68.991 20.5864 69.6756 22.555 71.0454 24.0348C72.4428 25.4881 74.3053 26.2147 76.6339 26.2147Z" fill="white"/>
<path d="M102.322 13.1348C103.006 12.1043 103.951 11.272 105.157 10.6378C106.362 10.0036 107.773 9.68652 109.389 9.68652C111.279 9.68652 112.991 10.1489 114.526 11.0738C116.059 11.9986 117.265 13.3198 118.141 15.0373C119.045 16.7549 119.497 18.7499 119.497 21.0223C119.497 23.2948 119.045 25.303 118.141 27.0469C117.265 28.7645 116.059 30.0988 114.526 31.0501C112.991 31.975 111.279 32.4373 109.389 32.4373C107.8 32.4373 106.39 32.1203 105.157 31.4861C103.951 30.8519 103.006 30.0328 102.322 29.0287V38.6998H95.2949V10.0036H102.322V13.1348ZM112.348 21.0223C112.348 19.3312 111.854 18.01 110.868 17.0588C109.909 16.0811 108.718 15.5923 107.293 15.5923C105.896 15.5923 104.705 16.0811 103.718 17.0588C102.76 18.0364 102.28 19.3708 102.28 21.0619C102.28 22.7531 102.76 24.0875 103.718 25.0651C104.705 26.0428 105.896 26.5316 107.293 26.5316C108.691 26.5316 109.882 26.0428 110.868 25.0651C111.854 24.061 112.348 22.7134 112.348 21.0223Z" fill="white"/>
<path d="M144.797 20.7052C144.797 21.3394 144.757 22 144.674 22.687H128.772C128.882 24.061 129.334 25.118 130.128 25.8578C130.95 26.5713 131.95 26.928 133.128 26.928C134.881 26.928 136.1 26.2145 136.785 24.7877H144.263C143.88 26.241 143.182 27.5489 142.168 28.7116C141.182 29.8742 139.935 30.7859 138.428 31.4465C136.922 32.107 135.237 32.4373 133.375 32.4373C131.128 32.4373 129.128 31.975 127.375 31.0501C125.622 30.1253 124.252 28.8041 123.266 27.0865C122.28 25.369 121.787 23.3608 121.787 21.0619C121.787 18.7631 122.266 16.7549 123.225 15.0373C124.211 13.3198 125.581 11.9986 127.334 11.0738C129.087 10.1489 131.101 9.68652 133.375 9.68652C135.593 9.68652 137.566 10.1357 139.291 11.0342C141.017 11.9326 142.36 13.2141 143.318 14.8788C144.305 16.5435 144.797 18.4856 144.797 20.7052ZM137.607 18.9216C137.607 17.759 137.196 16.8341 136.374 16.1471C135.552 15.4601 134.525 15.1166 133.292 15.1166C132.114 15.1166 131.114 15.4469 130.292 16.1075C129.498 16.7681 129.005 17.7061 128.813 18.9216H137.607Z" fill="white"/>
<path d="M162.476 9.76611C165.16 9.76611 167.297 10.6116 168.886 12.3028C170.502 13.9674 171.31 16.2663 171.31 19.1994V32.1206H164.324V20.111C164.324 18.6312 163.927 17.4818 163.133 16.6627C162.338 15.8435 161.27 15.434 159.928 15.434C158.585 15.434 157.517 15.8435 156.723 16.6627C155.929 17.4818 155.531 18.6312 155.531 20.111V32.1206H148.505V10.0039H155.531V12.9369C156.244 11.9592 157.202 11.193 158.408 10.6381C159.613 10.0568 160.969 9.76611 162.476 9.76611Z" fill="white"/>
<path d="M186.63 32.3979C184.521 32.3979 182.63 32.0676 180.959 31.407C179.288 30.7464 177.946 29.7687 176.933 28.4739C175.946 27.1792 175.425 25.6202 175.371 23.7969H182.849C182.959 24.8275 183.329 25.6202 183.959 26.1751C184.589 26.7036 185.411 26.9678 186.425 26.9678C187.466 26.9678 188.287 26.7432 188.89 26.294C189.492 25.8184 189.794 25.171 189.794 24.3519C189.794 23.6648 189.548 23.0967 189.054 22.6475C188.589 22.1983 188 21.8284 187.287 21.5377C186.602 21.247 185.616 20.9167 184.329 20.5468C182.466 19.9919 180.945 19.437 179.768 18.8821C178.59 18.3273 177.576 17.5081 176.727 16.4247C175.878 15.3414 175.453 13.9277 175.453 12.1837C175.453 9.5942 176.426 7.5728 178.371 6.11948C180.315 4.63976 182.849 3.8999 185.972 3.8999C189.15 3.8999 191.711 4.63976 193.656 6.11948C195.602 7.5728 196.643 9.6074 196.779 12.2233H189.177C189.123 11.325 188.78 10.6247 188.15 10.1227C187.52 9.5942 186.712 9.32996 185.726 9.32996C184.877 9.32996 184.192 9.55454 183.671 10.0038C183.151 10.4265 182.891 11.0475 182.891 11.8666C182.891 12.765 183.329 13.4653 184.206 13.9673C185.082 14.4694 186.452 15.0111 188.315 15.5924C190.178 16.2001 191.684 16.7814 192.834 17.3364C194.013 17.8912 195.026 18.6972 195.875 19.7541C196.725 20.8111 197.149 22.1719 197.149 23.8366C197.149 25.422 196.725 26.8621 195.875 28.1568C195.054 29.4516 193.848 30.4821 192.26 31.2484C190.671 32.0147 188.794 32.3979 186.63 32.3979Z" fill="white"/>
<path d="M223.088 20.7052C223.088 21.3394 223.046 22 222.964 22.687H207.062C207.172 24.061 207.623 25.118 208.418 25.8578C209.24 26.5713 210.24 26.928 211.418 26.928C213.171 26.928 214.39 26.2145 215.075 24.7877H222.553C222.17 26.241 221.471 27.5489 220.458 28.7116C219.472 29.8742 218.225 30.7859 216.718 31.4465C215.212 32.107 213.527 32.4373 211.664 32.4373C209.418 32.4373 207.418 31.975 205.665 31.0501C203.912 30.1253 202.542 28.8041 201.556 27.0865C200.57 25.369 200.077 23.3608 200.077 21.0619C200.077 18.7631 200.556 16.7549 201.515 15.0373C202.501 13.3198 203.87 11.9986 205.624 11.0738C207.377 10.1489 209.39 9.68652 211.664 9.68652C213.883 9.68652 215.855 10.1357 217.582 11.0342C219.307 11.9326 220.649 13.2141 221.608 14.8788C222.595 16.5435 223.088 18.4856 223.088 20.7052ZM215.897 18.9216C215.897 17.759 215.486 16.8341 214.664 16.1471C213.842 15.4601 212.815 15.1166 211.582 15.1166C210.404 15.1166 209.404 15.4469 208.582 16.1075C207.788 16.7681 207.295 17.7061 207.103 18.9216H215.897Z" fill="white"/>
<path d="M225.397 21.0223C225.397 18.7499 225.836 16.7549 226.712 15.0373C227.616 13.3198 228.835 11.9986 230.369 11.0738C231.904 10.1489 233.615 9.68652 235.506 9.68652C237.122 9.68652 238.533 10.0036 239.738 10.6378C240.971 11.272 241.916 12.1043 242.573 13.1348V10.0036H249.6V32.1203H242.573V28.9891C241.889 30.0196 240.93 30.8519 239.697 31.4861C238.492 32.1203 237.081 32.4373 235.465 32.4373C233.602 32.4373 231.904 31.975 230.369 31.0501C228.835 30.0988 227.616 28.7645 226.712 27.0469C225.836 25.303 225.397 23.2948 225.397 21.0223ZM242.573 21.0619C242.573 19.3708 242.08 18.0364 241.094 17.0588C240.136 16.0811 238.957 15.5923 237.56 15.5923C236.163 15.5923 234.971 16.0811 233.986 17.0588C233.027 18.01 232.547 19.3312 232.547 21.0223C232.547 22.7134 233.027 24.061 233.986 25.0651C234.971 26.0428 236.163 26.5316 237.56 26.5316C238.957 26.5316 240.136 26.0428 241.094 25.0651C242.08 24.0875 242.573 22.7531 242.573 21.0619Z" fill="white"/>
</svg>
