<svg width="350" height="60" viewBox="0 0 350 60" fill="none" xmlns="http://www.w3.org/2000/svg">
<path d="M51.8343 35.8721C50.7878 36.5116 49.5669 36.6279 48.6366 36.1046C47.4738 35.407 46.7762 33.8372 46.7762 31.686V25.1163C46.7762 21.9767 45.5552 19.7093 43.4622 19.1279C39.9157 18.0814 37.2413 22.4419 36.2529 24.0698L29.9738 34.1279V21.7442C29.9157 18.8953 28.9855 17.2093 27.2413 16.6861C26.0785 16.3372 24.3343 16.5116 22.6483 19.0698L8.63664 41.5116C6.77617 37.9651 5.7878 34.0116 5.7878 30C5.7878 16.4535 16.6599 5.46511 29.9738 5.46511C43.2878 5.46511 54.1599 16.4535 54.1599 30V30.0581V30.1163C54.2762 32.7326 53.4622 34.8256 51.8343 35.8721ZM59.5087 30V29.9419V29.8837C59.4506 13.4302 46.1948 0 29.9738 0C13.6948 0 0.438965 13.4302 0.438965 30C0.438965 46.5116 13.6948 60 29.9738 60C37.4738 60 44.5669 57.1511 50.032 51.9767C51.1366 50.9302 51.1948 49.2442 50.1483 48.1395C49.1599 47.0349 47.4738 46.9767 46.3692 47.9651C46.3692 47.9651 46.3692 47.9651 46.311 48.0233C41.8924 52.2093 35.9622 54.593 29.8576 54.593C22.7064 54.593 16.3111 51.4535 11.8925 46.4535L24.5087 26.2209V35.5814C24.5087 40.0581 26.2529 41.5116 27.7064 41.9186C29.1599 42.3256 31.3692 42.0349 33.7529 38.2558L40.6715 27.0349C40.9041 26.686 41.0785 26.3372 41.3111 26.1046V31.8023C41.3111 35.9884 42.9971 39.3605 45.9041 40.9884C48.5204 42.5 51.8343 42.3256 54.5669 40.6395C57.939 38.4302 59.7413 34.593 59.5087 30ZM100.672 19.7674C101.369 20.1744 102.009 21.1628 102.009 22.0349C102.009 23.4302 100.846 24.593 99.5087 24.593C99.1599 24.593 98.8692 24.4767 98.5785 24.4186C97.0087 23.2558 95.032 22.5 92.939 22.5C87.9971 22.5 84.625 26.5116 84.625 31.5116C84.625 36.5116 88.0552 40.4651 92.939 40.4651C95.3808 40.4651 97.5901 39.4767 99.218 37.907C99.625 37.6163 100.148 37.4419 100.672 37.4419C102.009 37.4419 103.055 38.4884 103.055 39.8256C103.055 40.6977 102.532 41.4535 101.892 41.8605C99.5087 43.8953 96.311 45.2326 92.9971 45.2326C85.4389 45.2326 79.2762 39.0116 79.2762 31.3372C79.2762 23.6628 85.4389 17.4419 92.9971 17.4419C95.7878 17.3837 98.4622 18.2558 100.672 19.7674ZM114.509 25.5814C119.683 25.5814 123.985 29.9419 123.985 35.3488C123.985 40.6977 119.625 45.2907 114.509 45.2907C109.102 45.2907 104.625 40.7558 104.625 35.3488C104.625 29.9419 109.102 25.5814 114.509 25.5814ZM114.451 40.4651C116.718 40.4651 118.637 38.3139 118.637 35.407C118.637 32.5 116.718 30.6395 114.451 30.6395C112.009 30.6395 109.974 32.4419 109.974 35.407C109.974 38.2558 112.009 40.4651 114.451 40.4651ZM127.241 42.2674V28.5465C127.241 27.0349 128.404 25.8139 129.916 25.8139C131.369 25.8139 132.59 27.0349 132.59 28.5465V42.2674C132.59 43.7791 131.369 45 129.916 45C128.462 45 127.241 43.7209 127.241 42.2674ZM126.834 20.6395C126.834 18.8372 128.23 17.4419 129.916 17.4419C131.66 17.4419 133.055 18.8953 133.055 20.6395C133.055 22.3837 131.66 23.7791 129.916 23.7791C128.172 23.7209 126.834 22.3256 126.834 20.6395ZM142.823 34.8256V42.2674C142.823 43.7791 141.602 45 140.148 45C138.695 45 137.474 43.7791 137.474 42.2674V27.907C137.474 26.7442 138.404 25.8139 139.567 25.8139C140.73 25.8139 141.602 26.8023 141.602 27.907C143.753 25.8721 145.672 25.5814 147.474 25.5814C152.823 25.5814 155.206 29.593 155.206 34.1861V42.2674C155.206 43.7791 153.985 45 152.532 45C151.078 45 149.858 43.7791 149.858 42.2674V34.8256C149.858 32.5 149.567 30.5233 146.195 30.5233C143.811 30.5233 142.823 32.5 142.823 34.8256ZM172.532 37.6744C171.892 37.6744 171.485 37.3837 171.137 36.9767L164.916 30.2326V42.2674C164.916 43.7791 163.695 45 162.241 45C160.788 45 159.567 43.7791 159.567 42.2674V18.4302C159.741 18.0233 160.148 17.7326 160.555 17.7326C161.02 17.7326 161.427 18.1395 161.718 18.4302L171.66 29.593C171.951 29.9419 172.299 30.1163 172.532 30.1163C172.706 30.1163 173.113 29.9419 173.404 29.593L183.346 18.4302C183.637 18.1395 183.985 17.7326 184.509 17.7326C184.974 17.7326 185.381 18.0233 185.497 18.4302V42.2674C185.497 43.7791 184.334 45 182.823 45C181.369 45 180.148 43.7791 180.148 42.2674V30.2326L173.927 36.9767C173.462 37.3837 173.055 37.6744 172.532 37.6744ZM198.23 40.4651C200.613 40.4651 202.648 38.3139 202.648 35.407C202.648 32.5 200.555 30.5814 198.23 30.5814C195.904 30.5814 193.985 32.5581 193.985 35.407C193.985 38.1977 195.846 40.4651 198.23 40.4651ZM203.927 42.907L203.811 42.2674C202.765 44.3023 199.451 45.2326 197.358 45.2326C192.358 45.2326 188.637 40.6977 188.637 35.2907C188.637 29.9419 192.416 25.5232 197.648 25.5232C198.52 25.5232 201.544 25.7558 203.869 28.4884L203.985 27.8488C203.985 26.686 204.858 25.7558 206.02 25.7558C207.183 25.7558 208.113 26.7442 208.113 27.8488V42.8488C208.113 44.0116 207.183 44.9419 206.02 44.9419C204.799 45 203.927 44.0116 203.927 42.907ZM222.823 30.5233H222.241C218.869 30.6977 218.23 32.6163 218.23 34.8256V42.2674C218.23 43.7791 217.009 45 215.555 45C214.102 45 212.881 43.7791 212.881 42.2674V27.907C212.881 26.7442 213.811 25.8139 214.974 25.8139C216.137 25.8139 217.009 26.8023 217.009 27.907C218.985 26.0465 220.613 25.6395 222.241 25.5814H222.765C224.044 25.5814 225.206 26.6861 225.206 28.0814C225.264 29.3605 224.102 30.5233 222.823 30.5233ZM243.462 40.9884C243.695 41.3953 243.869 41.8023 243.869 42.2674C243.869 43.6628 242.59 44.9419 241.195 44.9419C240.264 44.9419 239.451 44.2442 238.811 43.4302L232.648 36.2791V42.2093C232.648 43.7209 231.427 44.9419 229.974 44.9419C228.52 44.9419 227.299 43.7209 227.299 42.2093V20.407C227.299 18.8953 228.462 17.6744 229.974 17.6744C231.485 17.6744 232.648 18.8953 232.648 20.407V34.0116L238.811 27.2093C239.451 26.5116 240.206 25.7558 241.137 25.7558C242.474 25.7558 243.695 26.9768 243.695 28.3721C243.695 28.7791 243.578 29.2442 243.346 29.593L238.462 34.9419L243.462 40.9884ZM253.927 30.5814C252.474 30.5814 250.09 31.3372 250.09 33.6047H257.823C257.764 31.3372 255.323 30.5814 253.927 30.5814ZM260.904 37.0349H250.09C250.09 40.2326 253.171 40.7558 254.509 40.7558C255.497 40.7558 256.892 40.5814 257.997 40.0581C258.346 39.8256 258.869 39.6512 259.392 39.6512C260.555 39.6512 261.544 40.6395 261.544 41.8605C261.544 42.6744 261.02 43.3721 260.381 43.7791C258.753 45 256.602 45.2907 254.567 45.2907C249.16 45.2907 244.683 42.3837 244.683 35.5814C244.683 30.2326 247.416 25.5814 253.811 25.5814C258.985 25.5814 262.881 28.9535 262.997 34.9419C262.997 36.0465 262.067 37.0349 260.904 37.0349ZM275.788 45.2326H274.334C270.264 45.2326 267.881 43.4302 267.881 37.093V30.5233H266.485C265.206 30.5233 264.102 29.3605 264.102 28.0814C264.102 26.6861 265.264 25.5814 266.485 25.5814H267.881V20.5233C267.881 19.0116 269.044 17.7907 270.555 17.7907C272.009 17.7907 273.23 19.0116 273.23 20.5233V25.5814H275.439C276.718 25.5814 277.823 26.6861 277.823 28.0814C277.823 29.3605 276.66 30.5233 275.439 30.5233H273.23V36.0465C273.23 39.7093 273.404 40.4651 275.032 40.4651H275.788C277.067 40.4651 278.171 41.5116 278.171 42.8488C278.171 44.1279 277.067 45.2326 275.788 45.2326ZM301.66 19.7674C302.358 20.1744 302.997 21.1628 302.997 22.0349C302.997 23.4302 301.834 24.593 300.497 24.593C300.148 24.593 299.858 24.4767 299.567 24.4186C297.997 23.2558 296.02 22.5 293.927 22.5C288.985 22.5 285.613 26.5116 285.613 31.5116C285.613 36.5116 289.044 40.4651 293.927 40.4651C296.369 40.4651 298.578 39.4767 300.206 37.907C300.613 37.6163 301.137 37.4419 301.66 37.4419C302.997 37.4419 304.044 38.4884 304.044 39.8256C304.044 40.6977 303.52 41.4535 302.881 41.8605C300.497 43.8953 297.299 45.2326 293.985 45.2326C286.427 45.2326 280.264 39.0116 280.264 31.3372C280.264 23.6628 286.427 17.4419 293.985 17.4419C296.776 17.3837 299.509 18.2558 301.66 19.7674ZM315.206 40.4651C317.59 40.4651 319.625 38.3139 319.625 35.407C319.625 32.5 317.532 30.5814 315.206 30.5814C312.823 30.5814 310.962 32.5581 310.962 35.407C310.962 38.1977 312.881 40.4651 315.206 40.4651ZM320.904 42.907L320.788 42.2674C319.741 44.3023 316.427 45.2326 314.334 45.2326C309.334 45.2326 305.613 40.6977 305.613 35.2907C305.613 29.9419 309.392 25.5232 314.625 25.5232C315.497 25.5232 318.52 25.7558 320.846 28.4884L320.962 27.8488C320.962 26.686 321.834 25.7558 322.997 25.7558C324.16 25.7558 325.09 26.7442 325.09 27.8488V42.8488C325.09 44.0116 324.16 44.9419 322.997 44.9419C321.776 45 320.904 44.0116 320.904 42.907ZM339.683 40.4651C342.067 40.4651 343.927 38.1977 343.927 35.407C343.927 32.5 342.009 30.5814 339.683 30.5814C337.299 30.5814 335.264 32.5 335.264 35.407C335.264 38.3139 337.299 40.4651 339.683 40.4651ZM335.264 43.6628V50.4651C335.264 51.9767 334.044 53.1977 332.59 53.1977C331.137 53.1977 329.916 51.9767 329.916 50.4651V27.907C329.916 26.7442 330.846 25.8139 332.009 25.8139C333.171 25.8139 334.044 26.8023 334.044 28.1395C336.02 26.1046 338.462 25.5814 340.323 25.5814C345.497 25.5814 349.334 29.9419 349.334 35.3488C349.334 40.6977 345.671 45.2907 340.613 45.2907C339.044 45.2325 336.718 44.7674 335.264 43.6628Z" fill="white"/>
</svg>
