<svg width="317" height="60" viewBox="0 0 317 60" fill="none" xmlns="http://www.w3.org/2000/svg">
<path d="M26.8613 0L0.600098 15V45L26.8613 60L53.1226 45V15L26.8613 0ZM26.8613 0L0.600098 15V45L26.8613 60L53.1226 45V15L26.8613 0Z" fill="white"/>
<path d="M37.229 48.2812H33.4924L29.0191 44.2188V42.1354L33.6503 37.7604V30.8333L39.7025 26.9271L46.5967 32.0833L37.229 48.2812ZM21.7564 37.3438L22.4406 30.8333L20.1776 25H33.5451L31.3347 30.8333L31.9662 37.3438H26.8087H21.7564ZM24.8089 44.2188L20.3355 48.3333H16.5463L7.12594 32.0833L14.0728 26.9792L20.1776 30.8333V37.7604L24.8089 42.1354V44.2188ZM16.4937 12.9688H37.1764L39.6499 23.3854H14.0728L16.4937 12.9688ZM26.8613 0L0.600098 15V45L26.8613 60L53.1226 45V15L26.8613 0Z" fill="#13081F"/>
<path d="M82.594 43.9061C75.6471 43.9061 70.5422 38.5415 70.5422 31.9269C70.5422 25.3123 75.6998 19.7915 82.6466 19.7915C87.0673 19.7915 89.804 21.4061 91.9617 23.7498L88.6462 27.2915C87.0147 25.5728 85.278 24.4269 82.594 24.4269C78.6995 24.4269 75.8576 27.7603 75.8576 31.8228C75.8576 35.9894 78.7522 39.3228 82.8571 39.3228C85.3833 39.3228 87.2252 38.1248 88.9093 36.4582L92.1196 39.6353C89.804 42.0832 87.12 43.9061 82.594 43.9061Z" fill="white"/>
<path d="M102.277 43.9066H96.9087V19.8441H102.277V25.4692C103.75 22.0317 106.434 19.6358 110.539 19.8441V25.4692H110.224C105.54 25.4692 102.277 28.49 102.277 34.6358V43.9066Z" fill="white"/>
<path d="M138.59 19.7397L126.749 50.3647H121.328L123.907 43.9064L113.75 19.7397H119.486L126.38 37.6043L133.012 19.7397H138.59Z" fill="white"/>
<path d="M154.378 24.3752C150.747 24.3752 147.589 27.2918 147.589 31.8231C147.589 36.3543 150.8 39.271 154.378 39.271C158.062 39.271 161.062 36.4064 161.062 31.8231C161.062 27.2397 158.01 24.3752 154.378 24.3752ZM155.589 43.8543C151.747 43.8543 149.326 41.9272 147.695 39.7918V50.3647H142.327V19.7397H147.695V24.0627C149.431 21.6668 151.852 19.7397 155.589 19.7397C161.115 19.7397 166.483 24.0626 166.483 31.771C166.483 39.4793 161.167 43.8543 155.589 43.8543Z" fill="white"/>
<path d="M178.219 24.7917V36.1458C178.219 38.1771 179.271 39.0104 181.113 39.0104H183.218V43.75H179.534C175.64 43.75 172.851 42.0312 172.851 36.9792V24.7917H169.904V20.2604H172.851V13.9062H178.219V20.2604H183.218V24.7917H178.219Z" fill="white"/>
<path d="M200.112 24.3748C195.796 24.3748 193.06 27.7082 193.06 31.7707C193.06 35.8853 196.007 39.2707 200.165 39.2707C204.48 39.2707 207.217 35.9373 207.217 31.8748C207.322 27.7603 204.322 24.3748 200.112 24.3748ZM200.112 43.9061C193.007 43.9061 187.744 38.5415 187.744 31.9269C187.744 25.2603 193.06 19.7915 200.217 19.7915C207.375 19.7915 212.637 25.1561 212.637 31.8228C212.637 38.3853 207.375 43.9061 200.112 43.9061Z" fill="white"/>
<path d="M263.844 24.3748C259.529 24.3748 256.792 27.7082 256.792 31.7707C256.792 35.8853 259.739 39.2707 263.897 39.2707C268.212 39.2707 270.949 35.9373 270.949 31.8748C271.001 27.7603 268.054 24.3748 263.844 24.3748ZM263.844 43.9061C256.739 43.9061 251.477 38.5415 251.477 31.9269C251.477 25.2603 256.792 19.7915 263.949 19.7915C271.107 19.7915 276.369 25.1561 276.369 31.8228C276.369 38.3853 271.054 43.9061 263.844 43.9061Z" fill="white"/>
<path d="M308.157 19.7397C313.261 19.7397 316.367 22.9168 316.367 28.5939V43.8543H310.998V30.2085C310.998 26.5106 309.262 24.5835 306.262 24.5835C303.367 24.5835 301.262 26.6147 301.262 30.3127V43.9064H295.894V30.2085C295.894 26.6147 294.105 24.5835 291.158 24.5835C288.211 24.5835 286.158 26.771 286.158 30.3647V43.9064H280.79V19.7918H286.158V23.7502C287.684 21.7189 289.684 19.7918 293.263 19.7918C296.631 19.7918 298.947 21.4064 300.21 23.8543C302.157 21.3543 304.631 19.7397 308.157 19.7397Z" fill="white"/>
<path d="M217.321 38.7498L219.637 37.4478H219.952L222.321 38.7498L222.479 39.0103V41.7186L222.321 41.979L219.952 43.2811H219.637L217.321 41.979L217.163 41.7186V39.0103L217.321 38.7498Z" fill="white"/>
<path d="M238.741 43.8542C231.794 43.6979 226.794 38.2292 226.899 31.6146C227.005 25 232.267 19.5834 239.267 19.7396C243.688 19.8438 246.424 21.5105 248.529 23.9063L245.161 27.3959C243.582 25.6771 241.846 24.4271 239.162 24.375C235.267 24.323 232.373 27.5521 232.32 31.6667C232.215 35.8334 235.057 39.2188 239.162 39.2709C241.688 39.323 243.582 38.1771 245.267 36.5104L248.424 39.7396C246.056 42.1875 243.319 43.9584 238.741 43.8542Z" fill="white"/>
</svg>
