<svg width="240" height="48" viewBox="0 0 240 48" fill="none" xmlns="http://www.w3.org/2000/svg">
<path d="M81.5764 29.9412V29.8662C81.5764 26.3304 79.7006 24.5626 76.6479 23.3996C78.5236 22.3445 80.1086 20.6892 80.1086 17.7208V17.6458C80.1086 13.5098 76.7979 10.8369 71.4193 10.8369H59.2083V37.1628H71.7288C77.6701 37.1628 81.5857 34.7572 81.5857 29.9412H81.5764ZM74.3548 18.6868C74.3548 20.6423 72.737 21.4723 70.1813 21.4723H64.8495V15.9154H70.5658C73.009 15.9154 74.3642 16.8908 74.3642 18.6212L74.3548 18.6868ZM75.8225 29.2191C75.8225 31.1745 74.2798 32.0749 71.7194 32.0749H64.8495V26.2929H71.5412C74.5142 26.2929 75.8319 27.3855 75.8319 29.1534L75.8225 29.2191ZM93.7452 37.1628V10.8369H87.9351V37.1628H93.7452ZM124.878 37.1628V10.8369H119.143V27.0479L106.81 10.8369H101.469V37.1628H107.185V20.4266L119.93 37.1628H124.878ZM156.957 37.1628L145.656 10.6493H140.315L129.037 37.1628H134.941L137.356 31.2589H148.488L150.894 37.1628H156.957ZM146.43 26.1429H139.415L142.913 17.6083L146.43 26.1429ZM184.563 37.1628V10.8369H178.828V27.0479L166.491 10.8369H161.154V37.1628H166.866V20.4266L179.616 37.1628H184.563ZM214.458 32.9143L210.777 29.1909C208.709 31.0667 206.866 32.2718 203.855 32.2718C199.344 32.2718 196.221 28.5204 196.221 23.9998V23.9248C196.221 19.4137 199.419 15.7279 203.855 15.7279C206.486 15.7279 208.545 16.8533 210.589 18.6962L214.261 14.4477C211.818 12.0421 208.85 10.3867 203.884 10.3867C195.799 10.3867 190.158 16.5157 190.158 23.9858V24.0608C190.158 31.62 195.912 37.5989 203.658 37.5989C208.728 37.613 211.733 35.8076 214.439 32.9143H214.458ZM239.171 37.1628V32.0045H224.859V26.4664H237.272V21.3082H224.859V15.9905H238.964V10.8322H219.105V37.1581L239.171 37.1628Z" fill="white"/>
<path d="M11.2129 24L5.78732 29.4209L0.366455 24L5.78732 18.5791L11.2129 24ZM24.3665 10.837L33.656 20.1313L39.0769 14.7104L24.3665 0L9.65602 14.7104L15.0769 20.1313L24.3665 10.837ZM42.9503 18.5791L37.5294 24L42.9503 29.4209L48.3665 24L42.9503 18.5791ZM24.3665 37.163L15.0769 27.8734L9.65602 33.2896L24.3665 48L39.0769 33.2896L33.656 27.8734L24.3665 37.163ZM24.3665 29.4209L29.7873 24L24.3665 18.5791L18.9456 24L24.3665 29.4209Z" fill="white"/>
</svg>
