<svg width="185" height="40" viewBox="0 0 185 40" fill="none" xmlns="http://www.w3.org/2000/svg">
<path fill-rule="evenodd" clip-rule="evenodd" d="M12.0801 40.0001C6.05008 40.0001 0.170776 35.6783 0.170776 25.8796C0.170776 16.0805 6.05008 11.8091 12.0801 11.8091C15.0451 11.8091 17.3566 12.5632 19.0148 13.6686L17.2056 17.6384C16.1002 16.8343 14.442 16.3319 12.7838 16.3319C9.16575 16.3319 5.84906 19.1962 5.84906 25.8293C5.84906 32.4623 9.2661 35.377 12.7838 35.377C14.442 35.377 16.1002 34.8743 17.2056 34.0705L19.0148 38.1406C17.3063 39.2964 15.0451 40.0001 12.0801 40.0001Z" fill="white"/>
<path fill-rule="evenodd" clip-rule="evenodd" d="M32.834 40.0001C25.1458 40.0001 20.9247 33.9195 20.9247 25.8796C20.9247 17.8394 25.1458 11.8091 32.834 11.8091C40.5225 11.8091 44.7436 17.8394 44.7436 25.8796C44.7436 33.9195 40.5225 40.0001 32.834 40.0001ZM32.834 16.1809C28.5628 16.1809 26.4523 20 26.4523 25.8293C26.4523 31.6582 28.5628 35.5277 32.834 35.5277C37.1054 35.5277 39.216 31.6582 39.216 25.8293C39.216 20 37.1054 16.1809 32.834 16.1809Z" fill="white"/>
<path fill-rule="evenodd" clip-rule="evenodd" d="M52.1301 7.43707C50.3213 7.43707 48.8638 6.03024 48.8638 4.32172C48.8638 2.6132 50.3213 1.20605 52.1301 1.20605C53.939 1.20605 55.3965 2.6132 55.3965 4.32172C55.3965 6.03024 53.939 7.43707 52.1301 7.43707ZM49.3665 12.3619H54.8941V39.4472H49.3665V12.3619Z" fill="white"/>
<path fill-rule="evenodd" clip-rule="evenodd" d="M76.6524 39.4471V21.3568C76.6524 18.1911 74.7429 16.2312 70.9741 16.2312C68.9642 16.2312 67.1047 16.5829 65.9992 17.0353V39.4471H60.522V13.7186C63.2356 12.6132 66.703 11.8091 70.9238 11.8091C78.5119 11.8091 82.18 15.1258 82.18 20.8544V39.4471H76.6524Z" fill="white"/>
<path fill-rule="evenodd" clip-rule="evenodd" d="M96.7523 40C93.2346 40 89.7675 39.1456 87.657 38.0905V0H93.1342V13.0654C94.4407 12.4623 96.5513 11.96 98.4105 11.96C105.396 11.96 110.119 16.9848 110.119 25.2764C110.119 35.4772 104.843 40 96.7523 40ZM97.4557 16.2311C95.9482 16.2311 94.1894 16.5828 93.1342 17.1358V34.9245C93.9383 35.2762 95.4962 35.6279 97.0537 35.6279C101.425 35.6279 104.642 32.6129 104.642 25.6784C104.642 19.7488 101.828 16.2311 97.4557 16.2311Z" fill="white"/>
<path fill-rule="evenodd" clip-rule="evenodd" d="M125.043 40.0001C117.255 40.0001 113.335 36.8341 113.335 31.5076C113.335 23.9701 121.375 22.6132 129.566 22.1609V20.4523C129.566 17.0353 127.305 15.8292 123.837 15.8292C121.275 15.8292 118.159 16.6333 116.35 17.4877L114.943 13.7186C117.104 12.7639 120.772 11.8091 124.39 11.8091C130.872 11.8091 134.792 14.3217 134.792 21.0051V38.0906C132.832 39.1457 128.862 40.0001 125.043 40.0001ZM129.566 25.8293C124.038 26.1306 118.511 26.583 118.511 31.4072C118.511 34.2712 120.722 36.0301 124.893 36.0301C126.652 36.0301 128.712 35.7287 129.566 35.3266V25.8293Z" fill="white"/>
<path fill-rule="evenodd" clip-rule="evenodd" d="M147.153 40.0001C143.987 40.0001 140.671 39.1457 138.711 38.0906L140.57 33.8695C141.977 34.7236 144.942 35.628 147.002 35.628C149.967 35.628 151.927 34.1708 151.927 31.9096C151.927 29.4473 149.867 28.4926 147.103 27.4874C143.485 26.1306 139.415 24.4725 139.415 19.3972C139.415 14.9247 142.882 11.8091 148.912 11.8091C152.178 11.8091 154.892 12.6132 156.801 13.7186L155.093 17.5377C153.887 16.784 151.475 15.9299 149.515 15.9299C146.651 15.9299 145.043 17.4374 145.043 19.3972C145.043 21.8595 147.053 22.7136 149.716 23.7187C153.485 25.1258 157.656 26.6834 157.656 31.9599C157.656 36.8341 153.937 40.0001 147.153 40.0001Z" fill="white"/>
<path fill-rule="evenodd" clip-rule="evenodd" d="M184.389 25.7789L166.399 28.2915C166.952 33.1657 170.118 35.628 174.69 35.628C177.404 35.628 180.318 34.9749 182.178 33.9698L183.786 38.0906C181.675 39.196 178.057 40.0001 174.339 40.0001C165.796 40.0001 161.022 34.5226 161.022 25.8796C161.022 17.588 165.645 11.8091 173.233 11.8091C180.268 11.8091 184.439 16.4322 184.439 23.7187C184.439 24.3718 184.439 25.0755 184.389 25.7789ZM173.133 15.8292C168.911 15.8292 166.148 19.0455 166.047 24.6735L179.163 22.8643C179.112 18.1408 176.751 15.8292 173.133 15.8292Z" fill="white"/>
</svg>
